<?xml version="1.0" encoding="UTF-8"?>
<svg version="1.1" xmlns="http://www.w3.org/2000/svg" width="256" height="256">
<path d="M0 0 C0.99322266 -0.00128906 1.98644531 -0.00257812 3.00976562 -0.00390625 C4.55760742 0.00189453 4.55760742 0.00189453 6.13671875 0.0078125 C7.6671582 0.00201172 7.6671582 0.00201172 9.22851562 -0.00390625 C23.70621713 0.01481088 23.70621713 0.01481088 25.82421875 2.1328125 C26.06563839 4.5897629 26.24212448 7.01995372 26.37182617 9.48364258 C26.41372416 10.24381337 26.45562216 11.00398417 26.49878979 11.78719044 C26.95395057 20.69489132 27.02702393 29.60191257 27.0625 38.51953125 C27.06657553 39.40112223 27.07065105 40.2827132 27.07485008 41.19101906 C27.09546131 45.83396779 27.10988305 50.47688893 27.11938477 55.11987305 C27.13056191 59.89559104 27.16515983 64.67085752 27.20455647 69.44641399 C27.23067579 73.14647792 27.23907106 76.84643135 27.24266624 80.54657936 C27.24752288 82.30841024 27.25911046 84.07023648 27.27770424 85.83197594 C27.30205766 88.28639116 27.30114135 90.73959273 27.29418945 93.1940918 C27.30699951 93.91257294 27.31980957 94.63105408 27.33300781 95.37130737 C27.28126135 100.39138941 26.02730713 103.29494325 22.82421875 107.1328125 C20.35058594 107.81396484 20.35058594 107.81396484 17.62109375 107.71875 C16.1515625 107.68974609 16.1515625 107.68974609 14.65234375 107.66015625 C13.6365625 107.60988281 12.62078125 107.55960937 11.57421875 107.5078125 C10.02734375 107.46720703 10.02734375 107.46720703 8.44921875 107.42578125 C5.90543125 107.35512049 3.36588776 107.25653328 0.82421875 107.1328125 C-2.60684003 99.81322044 -2.34832319 91.65604758 -2.4921875 83.7265625 C-2.5129686 82.7612561 -2.53374969 81.79594971 -2.55516052 80.8013916 C-2.62007087 77.74526463 -2.67926641 74.68905842 -2.73828125 71.6328125 C-2.78152224 69.54947127 -2.82513823 67.46613779 -2.86914062 65.3828125 C-2.9756915 60.2995585 -3.0771204 55.21622551 -3.17578125 50.1328125 C-3.45980049 50.93848663 -3.45980049 50.93848663 -3.7495575 51.76043701 C-5.74132031 57.40830474 -7.73786777 63.05446516 -9.73706055 68.69970703 C-10.4801228 70.79986868 -11.22201034 72.90044638 -11.96264648 75.00146484 C-15.78082764 85.83037242 -19.58862641 96.60135641 -24.17578125 107.1328125 C-28.79578125 107.4628125 -33.41578125 107.7928125 -38.17578125 108.1328125 C-41.55077565 102.50782184 -41.55077565 102.50782184 -42.70629883 99.42260742 C-42.96699661 98.73386032 -43.2276944 98.04511322 -43.49629211 97.335495 C-43.76821884 96.60216446 -44.04014557 95.86883392 -44.3203125 95.11328125 C-44.61258224 94.3370491 -44.90485199 93.56081696 -45.20597839 92.76106262 C-46.13799804 90.28250538 -47.06324981 87.80148516 -47.98828125 85.3203125 C-48.59786001 83.69579564 -49.20788232 82.07144513 -49.81835938 80.44726562 C-51.31511162 76.46199902 -52.8064051 72.47471699 -54.29595947 68.48675537 C-55.73579464 64.6345096 -57.18044387 60.78407115 -58.625 56.93359375 C-59.12199548 55.60848227 -59.61898511 54.2833686 -60.1159668 52.95825195 C-60.46570557 52.02585693 -60.81544434 51.09346191 -61.17578125 50.1328125 C-61.16792603 51.47520996 -61.16792603 51.47520996 -61.15991211 52.84472656 C-61.00742225 82.91804392 -61.00742225 82.91804392 -61.48828125 94.9453125 C-61.51075928 95.73647461 -61.5332373 96.52763672 -61.55639648 97.34277344 C-61.76523906 101.58024144 -62.20779546 104.06545585 -65.17578125 107.1328125 C-68.58025929 108.09825024 -72.08643434 108.06012065 -75.61328125 108.1953125 C-76.56783203 108.26685547 -77.52238281 108.33839844 -78.50585938 108.41210938 C-85.29095724 108.73023503 -85.29095724 108.73023503 -88.7734375 106.37890625 C-93.14299915 96.26440561 -91.32264732 82.65128923 -91.30859375 71.76171875 C-91.30926872 69.90754687 -91.31024035 68.05337507 -91.31149292 66.19920349 C-91.31295825 62.33730211 -91.31085134 58.47542404 -91.30615234 54.61352539 C-91.30042761 49.66847941 -91.3037587 44.72348739 -91.30972481 39.77844334 C-91.31333809 35.96003309 -91.31218878 32.14163565 -91.30959702 28.32322502 C-91.30893133 26.49919567 -91.30974364 24.67516514 -91.31207657 22.85113716 C-91.31461875 20.30770908 -91.31074164 17.76436881 -91.30517578 15.22094727 C-91.30720001 14.47231415 -91.30922424 13.72368103 -91.31130981 12.95236206 C-91.29627926 9.24075393 -91.24720704 5.70530066 -90.17578125 2.1328125 C-85.66210526 -0.1240255 -79.53694281 0.82295045 -74.51782227 0.78271484 C-72.99976293 0.76613114 -71.48178245 0.73880867 -69.96411133 0.70068359 C-67.77514182 0.64598908 -65.58799761 0.62405896 -63.3984375 0.609375 C-62.08625244 0.58955566 -60.77406738 0.56973633 -59.42211914 0.54931641 C-56.17578125 1.1328125 -56.17578125 1.1328125 -54.32568359 3.43896484 C-53.94621582 4.32793457 -53.56674805 5.2169043 -53.17578125 6.1328125 C-52.64082031 7.3290625 -52.10585937 8.5253125 -51.5546875 9.7578125 C-50.94502508 11.21439763 -50.33986606 12.6728727 -49.73828125 14.1328125 C-49.40699219 14.92937256 -49.07570312 15.72593262 -48.734375 16.54663086 C-47.98158705 18.35836534 -47.23056879 20.17083577 -46.48095703 21.98388672 C-45.26518648 24.91710941 -44.04170516 27.84695514 -42.81541443 30.77578735 C-41.70806459 33.42201656 -40.60405969 36.06963345 -39.5007019 38.7175293 C-38.9509111 40.03567669 -38.40006907 41.35338611 -37.84817505 42.6706543 C-37.06854504 44.53291628 -36.29393252 46.39727639 -35.51953125 48.26171875 C-35.06771484 49.34525635 -34.61589844 50.42879395 -34.15039062 51.54516602 C-33.17578125 54.1328125 -33.17578125 54.1328125 -33.17578125 56.1328125 C-29.98816131 53.5180402 -29.08535099 50.66009073 -27.73828125 46.8203125 C-24.91992563 38.99565483 -21.88755182 31.26122259 -18.80026245 23.53970337 C-18.26184049 22.19236348 -17.72465606 20.84452835 -17.18875122 19.4961853 C-16.42284243 17.56926807 -15.65335121 15.6438198 -14.8828125 13.71875 C-14.43397705 12.5951709 -13.9851416 11.4715918 -13.52270508 10.31396484 C-9.74798555 1.39886689 -9.74798555 1.39886689 -7.31176758 0.26611328 C-4.86652664 0.11351281 -2.45100478 0.00307832 0 0 Z " fill="#FD0E43" transform="translate(216.17578125,80.8671875)"/>
<path d="M0 0 C2.15960233 0.00318056 4.31785951 -0.02041064 6.47729492 -0.0456543 C7.85294424 -0.04792562 9.22859723 -0.04863156 10.60424805 -0.04760742 C11.84907959 -0.05058838 13.09391113 -0.05356934 14.37646484 -0.05664062 C17.4675293 0.31567383 17.4675293 0.31567383 19.28125 1.578125 C24.76348383 9.6079785 26.93728407 20.49602163 29.9675293 29.69067383 C30.48999305 31.2682547 31.01278571 32.84572667 31.53588867 34.4230957 C32.6263397 37.71206871 33.71536811 41.00150782 34.8034668 44.29125977 C37.25366455 51.69475829 39.72310788 59.09184003 42.19140625 66.48931885 C42.94719694 68.75472952 43.70258018 71.02027552 44.45776367 73.28588867 C44.81312195 74.351465 44.81312195 74.351465 45.17565918 75.43856812 C45.63454214 76.8161999 46.09249642 78.19414144 46.54943848 79.57241821 C47.57655766 82.66709945 48.62081426 85.75363088 49.69799805 88.83129883 C50.24907227 90.4168457 50.24907227 90.4168457 50.8112793 92.03442383 C51.29371094 93.39470703 51.29371094 93.39470703 51.78588867 94.7824707 C52.76269145 98.41259448 53.05296212 101.15696249 51.33862305 104.55004883 C45.86409486 109.71599192 34.10277584 108.57613945 26.9284668 108.87426758 C24.4675293 108.31567383 24.4675293 108.31567383 22.76831055 106.14379883 C21.47578152 103.3336156 20.31763829 100.54222514 19.2800293 97.62817383 C18.93584961 96.67555664 18.59166992 95.72293945 18.23706055 94.74145508 C17.4675293 92.31567383 17.4675293 92.31567383 17.4675293 90.31567383 C6.5775293 90.31567383 -4.3124707 90.31567383 -15.5324707 90.31567383 C-16.5224707 93.61567383 -17.5124707 96.91567383 -18.5324707 100.31567383 C-21.19913737 106.98234049 -21.19913737 106.98234049 -22.5324707 108.31567383 C-25.58684445 108.56741955 -28.6564549 108.50090624 -31.7199707 108.50317383 C-32.57139648 108.51541992 -33.42282227 108.52766602 -34.30004883 108.5402832 C-39.87788436 108.55322482 -45.00020912 108.43950613 -49.4699707 104.69067383 C-52.33098954 98.29545526 -48.20705308 89.35108275 -46.2199707 83.06567383 C-45.87240723 81.95160156 -45.52484375 80.8375293 -45.16674805 79.68969727 C-41.6178869 68.40999086 -37.89685231 57.18528742 -34.11083984 45.9831543 C-31.82151683 39.20573314 -29.54615406 32.42958219 -27.42727661 25.59655762 C-26.55569027 22.78692804 -25.66769916 19.98259813 -24.7789917 17.17834473 C-24.36813331 15.86438869 -23.96582596 14.547725 -23.5725708 13.22839355 C-23.03144346 11.41492666 -22.45850072 9.61104409 -21.8840332 7.80786133 C-21.57288574 6.79062988 -21.26173828 5.77339844 -20.94116211 4.7253418 C-19.5324707 2.31567383 -19.5324707 2.31567383 -16.83935547 0.99121094 C-11.25551203 -0.1494679 -5.67274385 -0.01753854 0 0 Z M-0.5324707 34.31567383 C-1.20740412 36.54235148 -1.87210114 38.7721336 -2.5324707 41.00317383 C-2.9037207 42.24454102 -3.2749707 43.4859082 -3.6574707 44.76489258 C-5.05310774 50.18093586 -5.05310774 50.18093586 -3.4309082 55.30004883 C-0.70988568 58.45364416 0.72497564 60.10940892 4.8425293 61.25317383 C5.7087793 61.27379883 6.5750293 61.29442383 7.4675293 61.31567383 C8.74426157 57.71861943 8.17128249 55.48542074 7.03393555 51.89379883 C6.71489258 50.86899414 6.39584961 49.84418945 6.06713867 48.78833008 C5.72489258 47.72485352 5.38264648 46.66137695 5.0300293 45.56567383 C4.69165039 44.48672852 4.35327148 43.4077832 4.00463867 42.29614258 C3.16798207 39.63298211 2.32199397 36.9731635 1.4675293 34.31567383 C0.8075293 34.31567383 0.1475293 34.31567383 -0.5324707 34.31567383 Z M-7.5324707 58.31567383 C-7.2024707 59.30567383 -6.8724707 60.29567383 -6.5324707 61.31567383 C-5.8724707 61.31567383 -5.2124707 61.31567383 -4.5324707 61.31567383 C-4.8624707 60.32567383 -5.1924707 59.33567383 -5.5324707 58.31567383 C-6.1924707 58.31567383 -6.8524707 58.31567383 -7.5324707 58.31567383 Z " fill="#FD0D3F" transform="translate(63.532470703125,81.684326171875)"/>
<path d="M0 0 C0.33 0 0.66 0 1 0 C1 2.31 1 4.62 1 7 C0.34 7 -0.32 7 -1 7 C-0.896875 8.2375 -0.79375 9.475 -0.6875 10.75 C-0.67070345 16.10810053 -2.51778456 20.11495225 -4.6953125 24.9375 C-6.3220622 28.75597834 -7.3631712 32.60305129 -8.38671875 36.6171875 C-9.11906335 39.46260282 -10.0710293 42.21308791 -11 45 C-11.99 48.63 -12.98 52.26 -14 56 C-1.625 55.505 -1.625 55.505 11 55 C12.44318994 49.50119085 12.44318994 49.50119085 13.84057617 43.99072266 C14.03111572 43.3054248 14.22165527 42.62012695 14.41796875 41.9140625 C14.60125732 41.2123291 14.7845459 40.5105957 14.97338867 39.78759766 C16.50338054 37.1234834 18.07855434 36.81283176 21 36 C25.20987535 35.5384853 29.42498377 35.43660262 33.6574707 35.31201172 C35.69236535 35.24985138 37.72570279 35.16683493 39.75976562 35.08203125 C41.67885742 35.01822266 41.67885742 35.01822266 43.63671875 34.953125 C45.39568481 34.89366699 45.39568481 34.89366699 47.19018555 34.83300781 C50 35 50 35 52 37 C52.5704823 39.06514593 53.05958899 41.15326064 53.5 43.25 C54.43906437 47.6799341 55.55617971 51.66853913 57 56 C70.86 56.495 70.86 56.495 85 57 C84.34 58.32 83.68 59.64 83 61 C75.86108629 63.25888016 65.35865755 64.67029846 58 63 C55.47654756 59.77462171 54.17871159 56.1494084 52.8125 52.3125 C52.29623047 50.88357422 52.29623047 50.88357422 51.76953125 49.42578125 C51 47 51 47 51 45 C40.11 45 29.22 45 18 45 C17.01 48.3 16.02 51.6 15 55 C12.33333333 61.66666667 12.33333333 61.66666667 11 63 C7.94562625 63.25174572 4.8760158 63.18523241 1.8125 63.1875 C0.53536133 63.20586914 0.53536133 63.20586914 -0.76757812 63.22460938 C-6.34541366 63.23755099 -11.46773842 63.1238323 -15.9375 59.375 C-18.89309343 52.76837938 -14.47938654 43.40507929 -12.4375 36.9375 C-12.086875 35.81166504 -11.73625 34.68583008 -11.375 33.52587891 C-7.83367409 22.26389539 -3.9746108 11.11549115 0 0 Z " fill="#D30C24" transform="translate(30,127)"/>
<path d="M0 0 C10.89 0 21.78 0 33 0 C35 6 37 12 39 18 C52.86 18.495 52.86 18.495 67 19 C66.34 20.32 65.68 21.64 65 23 C57.86108629 25.25888016 47.35865755 26.67029846 40 25 C37.47654756 21.77462171 36.17871159 18.1494084 34.8125 14.3125 C34.46832031 13.35988281 34.12414062 12.40726563 33.76953125 11.42578125 C33 9 33 9 33 7 C22.11 7 11.22 7 0 7 C-0.66 8.32 -1.32 9.64 -2 11 C-1.125 3.375 -1.125 3.375 0 0 Z " fill="#830106" transform="translate(48,165)"/>
<path d="M0 0 C0.33 0 0.66 0 1 0 C1.8406497 12.13658656 2.18988993 24.2225928 2.23828125 36.38671875 C2.24235678 37.26830973 2.2464323 38.1499007 2.25063133 39.05820656 C2.27124256 43.70115529 2.2856643 48.34407643 2.29516602 52.98706055 C2.30634316 57.76277854 2.34094108 62.53804502 2.38033772 67.31360149 C2.40645704 71.01366542 2.41485231 74.71361885 2.41844749 78.41376686 C2.42330413 80.17559774 2.43489171 81.93742398 2.45348549 83.69916344 C2.47783891 86.15357866 2.4769226 88.60678023 2.4699707 91.0612793 C2.48278076 91.77976044 2.49559082 92.49824158 2.50878906 93.23849487 C2.4570426 98.25857691 1.20308838 101.16213075 -2 105 C-4.47363281 105.68115234 -4.47363281 105.68115234 -7.203125 105.5859375 C-8.67265625 105.55693359 -8.67265625 105.55693359 -10.171875 105.52734375 C-11.18765625 105.47707031 -12.2034375 105.42679687 -13.25 105.375 C-14.796875 105.33439453 -14.796875 105.33439453 -16.375 105.29296875 C-18.9187875 105.22230799 -21.45833099 105.12372078 -24 105 C-27.27763777 98.00770609 -27.14767494 90.56091422 -27.0625 83 C-27.05798828 82.22527344 -27.05347656 81.45054687 -27.04882812 80.65234375 C-27.03719758 78.76819476 -27.01926906 76.88408635 -27 75 C-26.01 75.33 -25.02 75.66 -24 76 C-23.08680711 83.3707712 -22.91364608 90.57356288 -23 98 C-15.74 98 -8.48 98 -1 98 C-1.0103125 94.97328125 -1.020625 91.9465625 -1.03125 88.828125 C-1.04394533 78.70954829 -0.8426173 68.60450351 -0.57247925 58.4901123 C-0.05664861 38.98889078 0.13279985 19.50727585 0 0 Z " fill="#C90C23" transform="translate(241,83)"/>
<path d="M0 0 C0.33 0 0.66 0 1 0 C1.00808685 0.83033249 1.01617371 1.66066498 1.02450562 2.51615906 C1.10329441 10.44173699 1.19081762 18.3671641 1.28752708 26.29254436 C1.33692397 30.36451177 1.38324513 34.43646001 1.421875 38.50854492 C1.59098733 56.10959621 1.92950901 73.49814696 4 91 C4 91.66 4 92.32 4 93 C4.55985596 92.96447021 5.11971191 92.92894043 5.6965332 92.89233398 C8.23485442 92.73465957 10.77362523 92.58598293 13.3125 92.4375 C14.63411133 92.35338867 14.63411133 92.35338867 15.98242188 92.26757812 C17.25375977 92.19506836 17.25375977 92.19506836 18.55078125 92.12109375 C19.72120972 92.05039673 19.72120972 92.05039673 20.9152832 91.97827148 C23 92 23 92 26 93 C27.08535794 81.57510954 27.31881557 70.15459312 27.5625 58.6875 C27.60579904 56.7714771 27.64941648 54.85546137 27.69335938 52.93945312 C27.79924006 48.29304315 27.90082496 43.64655774 28 39 C28.99 39 29.98 39 31 39 C31.33 40.65 31.66 42.3 32 44 C31.34 43.34 30.68 42.68 30 42 C30.00785522 43.34239746 30.00785522 43.34239746 30.01586914 44.71191406 C30.168359 74.78523142 30.168359 74.78523142 29.6875 86.8125 C29.66502197 87.60366211 29.64254395 88.39482422 29.61938477 89.20996094 C29.41054219 93.44742894 28.96798579 95.93264335 26 99 C22.59552196 99.96543774 19.08934691 99.92730815 15.5625 100.0625 C14.60794922 100.13404297 13.65339844 100.20558594 12.66992188 100.27929688 C5.88482401 100.59742253 5.88482401 100.59742253 2.40234375 98.24609375 C-1.96630318 88.13371047 -0.13034441 74.55511052 -0.09765625 63.671875 C-0.0957873 61.82814574 -0.09436565 59.98441597 -0.09336853 58.14068604 C-0.08958087 53.3272358 -0.07978335 48.51381655 -0.06866455 43.70037842 C-0.05836905 38.77291279 -0.0538536 33.84544207 -0.04882812 28.91796875 C-0.0381571 19.27863235 -0.02112667 9.63931877 0 0 Z " fill="#C60619" transform="translate(125,89)"/>
<path d="M0 0 C2.32053337 2.32053337 3.03010458 4.20839409 4.25 7.25 C6.18154237 12.00147959 8.15509434 16.72863412 10.1875 21.4375 C12.41545196 26.60470256 14.56682724 31.77779402 16.5 37.0625 C17.3056523 39.23817017 18.12580325 41.24498527 19.1875 43.3125 C20 45 20 45 20 48 C24.62 48 29.24 48 34 48 C34.33 46.35 34.66 44.7 35 43 C35.66 43 36.32 43 37 43 C37.0928125 41.8553125 37.0928125 41.8553125 37.1875 40.6875 C38.08417016 36.61799696 39.61577588 33.37666562 41.3984375 29.62890625 C43.94573823 23.85709558 46.07909552 17.926284 48.23266602 11.99780273 C48.56194092 11.10907471 48.89121582 10.22034668 49.23046875 9.3046875 C49.52332764 8.50015137 49.81618652 7.69561523 50.11791992 6.86669922 C51 5 51 5 53 4 C50.67730395 13.72401871 47.24450838 23.05124715 43.84716797 32.4375 C42.86533384 35.15172152 41.89122365 37.86862935 40.91796875 40.5859375 C40.29732393 42.3100575 39.67624635 44.0340218 39.0546875 45.7578125 C38.76302704 46.57122101 38.47136658 47.38462952 38.17086792 48.22268677 C36.11553992 53.88446008 36.11553992 53.88446008 35 55 C32.65012738 55.23527773 30.29443961 55.41386417 27.9375 55.5625 C26.64714844 55.64628906 25.35679687 55.73007813 24.02734375 55.81640625 C23.02832031 55.87699219 22.02929688 55.93757813 21 56 C18.25346565 51.79735337 16.52228032 47.48164465 14.78515625 42.8046875 C14.48814316 42.01659698 14.19113007 41.22850647 13.88511658 40.41653442 C12.93967306 37.90437943 12.00106035 35.38973356 11.0625 32.875 C10.43598068 31.20817021 9.80903151 29.54150193 9.18164062 27.875 C7.70283997 23.9425583 6.23421303 20.00643329 4.77081299 16.0682373 C4.07504802 14.20136806 3.37171868 12.33732222 2.66748047 10.47363281 C2.30154785 9.49491211 1.93561523 8.51619141 1.55859375 7.5078125 C1.25107178 6.69199707 0.9435498 5.87618164 0.62670898 5.03564453 C0 3 0 3 0 0 Z " fill="#DC071B" transform="translate(157,133)"/>
<path d="M0 0 C0.99322266 -0.00128906 1.98644531 -0.00257812 3.00976562 -0.00390625 C4.55760742 0.00189453 4.55760742 0.00189453 6.13671875 0.0078125 C7.6671582 0.00201172 7.6671582 0.00201172 9.22851562 -0.00390625 C10.72415039 -0.00197266 10.72415039 -0.00197266 12.25 0 C13.15145752 0.00112793 14.05291504 0.00225586 14.98168945 0.00341797 C18.2806447 0.15358943 21.5550378 0.66578665 24.82421875 1.1328125 C24.82421875 8.3928125 24.82421875 15.6528125 24.82421875 23.1328125 C24.49421875 23.1328125 24.16421875 23.1328125 23.82421875 23.1328125 C23.82421875 17.1928125 23.82421875 11.2528125 23.82421875 5.1328125 C19.30153717 4.48671513 15.56333549 4.00999263 11.109375 4.03515625 C10.09423828 4.03837891 9.07910156 4.04160156 8.03320312 4.04492188 C6.99486328 4.05330078 5.95652344 4.06167969 4.88671875 4.0703125 C3.82130859 4.07482422 2.75589844 4.07933594 1.65820312 4.08398438 C-0.95318416 4.09569463 -3.56445249 4.11209526 -6.17578125 4.1328125 C-6.418125 4.83148438 -6.66046875 5.53015625 -6.91015625 6.25 C-7.2453125 7.16007812 -7.58046875 8.07015625 -7.92578125 9.0078125 C-8.250625 9.91273437 -8.57546875 10.81765625 -8.91015625 11.75 C-10.37886998 14.51517091 -11.40654193 14.88327769 -14.17578125 16.1328125 C-14.50578125 17.1228125 -14.83578125 18.1128125 -15.17578125 19.1328125 C-15.50578125 18.4728125 -15.83578125 17.8128125 -16.17578125 17.1328125 C-15.20032554 14.37147715 -14.15817346 11.7473422 -12.98828125 9.0703125 C-12.68341797 8.32458984 -12.37855469 7.57886719 -12.06445312 6.81054688 C-11.75701172 6.10091797 -11.44957031 5.39128906 -11.1328125 4.66015625 C-10.8541333 4.00781006 -10.5754541 3.35546387 -10.28833008 2.68334961 C-9.17578125 1.1328125 -9.17578125 1.1328125 -7.37695312 0.4206543 C-4.89462516 0.09604641 -2.50428327 0.00314524 0 0 Z " fill="#DB0E38" transform="translate(216.17578125,80.8671875)"/>
<path d="M0 0 C1.51805933 -0.0165837 3.03603981 -0.04390618 4.55371094 -0.08203125 C6.74268045 -0.13672576 8.92982465 -0.15865589 11.11938477 -0.17333984 C12.43156982 -0.19315918 13.74375488 -0.21297852 15.09570312 -0.23339844 C18.34204102 0.35009766 18.34204102 0.35009766 20.25048828 2.73828125 C21.17754326 4.95649512 21.90505227 6.99035842 22.34204102 9.35009766 C21.35204102 9.35009766 20.36204102 9.35009766 19.34204102 9.35009766 C19.34204102 7.37009766 19.34204102 5.39009766 19.34204102 3.35009766 C8.12204102 3.02009766 -3.09795898 2.69009766 -14.65795898 2.35009766 C-14.32795898 27.43009766 -13.99795898 52.51009766 -13.65795898 78.35009766 C-14.31795898 78.02009766 -14.97795898 77.69009766 -15.65795898 77.35009766 C-15.81194213 68.17929484 -15.96012208 59.00842187 -16.10092258 49.83740711 C-16.16648565 45.57880843 -16.23403682 41.32026074 -16.30615234 37.06176758 C-16.37569195 32.95104449 -16.43998195 28.84026955 -16.50065422 24.72940636 C-16.52470428 23.16212681 -16.55063627 21.59487497 -16.57849312 20.02765846 C-16.61722793 17.83025056 -16.64923179 15.63283884 -16.6796875 13.43530273 C-16.70966576 11.55999626 -16.70966576 11.55999626 -16.74024963 9.64680481 C-16.66691063 6.70871638 -16.48674379 4.16702509 -15.65795898 1.35009766 C-11.14428299 -0.90674034 -5.01912055 0.04023561 0 0 Z " fill="#D90F2E" transform="translate(141.657958984375,81.64990234375)"/>
<path d="M0 0 C0.66 0 1.32 0 2 0 C4.84674643 7.28001951 7.61500759 14.55495612 10 22 C10.33 22.99 10.66 23.98 11 25 C11.03954234 27.33299825 11.04401732 29.66708189 11 32 C9.5629191 32.05422947 8.12524538 32.09289723 6.6875 32.125 C5.88699219 32.14820313 5.08648437 32.17140625 4.26171875 32.1953125 C2 32 2 32 -1 30 C-1 30.66 -1 31.32 -1 32 C-3.31 32 -5.62 32 -8 32 C-7.47612726 27.37245749 -6.83809873 22.78002161 -6.0625 18.1875 C-5.90910156 17.27355469 -5.75570312 16.35960937 -5.59765625 15.41796875 C-5 13 -5 13 -3 10 C-2.41162754 8.28616279 -1.87280046 6.55480159 -1.375 4.8125 C-0.98441406 3.46091797 -0.98441406 3.46091797 -0.5859375 2.08203125 C-0.39257812 1.39496094 -0.19921875 0.70789063 0 0 Z M0 4 C-0.67493341 6.22667765 -1.33963044 8.45645977 -2 10.6875 C-2.37125 11.92886719 -2.7425 13.17023438 -3.125 14.44921875 C-4.52063704 19.86526203 -4.52063704 19.86526203 -2.8984375 24.984375 C-0.17741498 28.13797033 1.25744634 29.7937351 5.375 30.9375 C6.24125 30.958125 7.1075 30.97875 8 31 C9.27673227 27.40294561 8.70375319 25.16974691 7.56640625 21.578125 C7.24736328 20.55332031 6.92832031 19.52851563 6.59960938 18.47265625 C6.25736328 17.40917969 5.91511719 16.34570312 5.5625 15.25 C5.22412109 14.17105469 4.88574219 13.09210938 4.53710938 11.98046875 C3.70045277 9.31730828 2.85446467 6.65748967 2 4 C1.34 4 0.68 4 0 4 Z M-7 28 C-6.67 28.99 -6.34 29.98 -6 31 C-5.34 31 -4.68 31 -4 31 C-4.33 30.01 -4.66 29.02 -5 28 C-5.66 28 -6.32 28 -7 28 Z " fill="#DC0B22" transform="translate(63,112)"/>
<path d="M0 0 C1 3 1 3 0.14453125 5.66015625 C-2.31144871 8.3398138 -2.77571531 8.36986004 -6.23828125 8.55859375 C-7.93010591 8.54397468 -9.62186407 8.50257353 -11.3125 8.4375 C-12.15490234 8.43169922 -12.99730469 8.42589844 -13.86523438 8.41992188 C-18.53368021 8.32867 -22.73029412 8.0719658 -27 6 C-27.66 4.68 -28.32 3.36 -29 2 C-19.43 2 -9.86 2 0 2 C0 1.34 0 0.68 0 0 Z " fill="#5E0105" transform="translate(43,182)"/>
<path d="M0 0 C2.16835012 -0.00976734 4.33577563 -0.04085767 6.50390625 -0.07226562 C7.88410899 -0.07879084 9.26431845 -0.0840432 10.64453125 -0.08789062 C11.89572754 -0.09723633 13.14692383 -0.10658203 14.43603516 -0.11621094 C17.54296875 0.24023438 17.54296875 0.24023438 19.39990234 1.56152344 C21.02851254 3.95330552 21.74475685 6.47719319 22.54296875 9.24023438 C21.88296875 9.90023437 21.22296875 10.56023437 20.54296875 11.24023438 C20.54296875 10.58023438 20.54296875 9.92023438 20.54296875 9.24023438 C19.88296875 8.91023438 19.22296875 8.58023438 18.54296875 8.24023438 C18.54296875 6.92023438 18.54296875 5.60023437 18.54296875 4.24023438 C6.66296875 3.91023438 -5.21703125 3.58023438 -17.45703125 3.24023438 C-16.79703125 3.90023437 -16.13703125 4.56023437 -15.45703125 5.24023438 C-15.70705698 9.74069752 -17.87457429 12.65811665 -20.45703125 16.24023438 C-20.45703125 13.05553096 -19.99677507 10.18999531 -19.45703125 7.05273438 C-19.27140625 5.96605469 -19.08578125 4.879375 -18.89453125 3.75976562 C-18.75015625 2.92832031 -18.60578125 2.096875 -18.45703125 1.24023438 C-12.37443104 -0.20407564 -6.21316664 0.01697587 0 0 Z " fill="#D41036" transform="translate(63.45703125,81.759765625)"/>
<path d="M0 0 C3.04717345 4.57076017 4.39916617 9.68530181 6.125 14.875 C6.68380859 16.50888672 6.68380859 16.50888672 7.25390625 18.17578125 C7.60582031 19.22894531 7.95773438 20.28210938 8.3203125 21.3671875 C8.64273926 22.32737793 8.96516602 23.28756836 9.29736328 24.27685547 C10 27 10 27 10 32 C0.43 32 -9.14 32 -19 32 C-23.5 20.75 -23.5 20.75 -24 14 C-21.95939871 17.06090193 -21.04353582 19.6344687 -19.9375 23.125 C-18.99117676 26.85361694 -18.99117676 26.85361694 -17 30 C-15.29227642 30.08713831 -13.58101351 30.10700007 -11.87109375 30.09765625 C-10.83662109 30.09443359 -9.80214844 30.09121094 -8.73632812 30.08789062 C-7.64771484 30.07951172 -6.55910156 30.07113281 -5.4375 30.0625 C-4.34501953 30.05798828 -3.25253906 30.05347656 -2.12695312 30.04882812 C0.58208495 30.03699826 3.29101599 30.02051543 6 30 C5.47810082 23.88118199 4.44046405 18.54008096 2.4375 12.75 C0.96113843 8.45512997 -0.34826638 4.60783216 0 0 Z " fill="#D8091A" transform="translate(106,152)"/>
<path d="M0 0 C1.57873923 4.73621769 -0.89136155 7.59102869 -3 12 C-7.62 12.33 -12.24 12.66 -17 13 C-20 8 -20 8 -20 6 C-14.06 6 -8.12 6 -2 6 C-1.34 4.02 -0.68 2.04 0 0 Z " fill="#840108" transform="translate(195,176)"/>
<path d="M0 0 C8.58 0 17.16 0 26 0 C25.01 1.65 24.02 3.3 23 5 C20.63989258 5.56762695 20.63989258 5.56762695 17.89453125 5.48828125 C16.42016602 5.46411133 16.42016602 5.46411133 14.91601562 5.43945312 C13.89185547 5.39755859 12.86769531 5.35566406 11.8125 5.3125 C10.77673828 5.28994141 9.74097656 5.26738281 8.67382812 5.24414062 C6.11443596 5.18516846 3.55794049 5.10292567 1 5 C0.67 3.35 0.34 1.7 0 0 Z " fill="#590002" transform="translate(216,183)"/>
<path d="M0 0 C1.32741211 -0.02416992 1.32741211 -0.02416992 2.68164062 -0.04882812 C7.56305501 -0.0524901 10.99699579 0.076535 14.9375 3.3125 C14.9375 3.6425 14.9375 3.9725 14.9375 4.3125 C4.7075 4.3125 -5.5225 4.3125 -16.0625 4.3125 C-16.0625 3.6525 -16.0625 2.9925 -16.0625 2.3125 C-10.65437998 0.07619337 -5.75314974 -0.02104298 0 0 Z " fill="#65040A" transform="translate(65.0625,167.6875)"/>
<path d="M0 0 C13.365 0.495 13.365 0.495 27 1 C26.34 2.32 25.68 3.64 25 5 C21.58643466 5.34242942 18.17075035 5.61496917 14.75 5.875 C13.78191406 5.97296875 12.81382812 6.0709375 11.81640625 6.171875 C10.41455078 6.26855469 10.41455078 6.26855469 8.984375 6.3671875 C8.12553711 6.44050293 7.26669922 6.51381836 6.38183594 6.58935547 C4 6 4 6 0 0 Z " fill="#730004" transform="translate(126,183)"/>
<path d="M0 0 C0.66 1.32 1.32 2.64 2 4 C-9.22 3.67 -20.44 3.34 -32 3 C-32.33 5.31 -32.66 7.62 -33 10 C-34.5625 12.4375 -34.5625 12.4375 -36 14 C-35.01176471 5.6 -35.01176471 5.6 -33 2 C-30.28670632 1.08204252 -27.65315267 0.83037197 -24.8046875 0.68359375 C-24.0103833 0.64161865 -23.2160791 0.59964355 -22.39770508 0.55639648 C-21.5652124 0.51716064 -20.73271973 0.4779248 -19.875 0.4375 C-18.60209106 0.37381226 -18.60209106 0.37381226 -17.3034668 0.30883789 C-11.52926364 0.03403381 -5.78126191 -0.09477479 0 0 Z " fill="#EA0B21" transform="translate(80,162)"/>
<path d="M0 0 C-0.33 0.99 -0.66 1.98 -1 3 C-9.41518047 4.52016163 -17.4488728 5.27733386 -26 5 C-26.66 3.68 -27.32 2.36 -28 1 C-23.7083573 0.83271225 -19.41668206 0.66627459 -15.125 0.5 C-13.90167969 0.45230469 -12.67835937 0.40460938 -11.41796875 0.35546875 C-9.66806641 0.28779297 -9.66806641 0.28779297 -7.8828125 0.21875 C-6.80402832 0.17685547 -5.72524414 0.13496094 -4.61376953 0.09179688 C-3.07648977 0.03780685 -1.53822755 0 0 0 Z " fill="#550105" transform="translate(114,185)"/>
<path d="M0 0 C1.32630565 4.14470514 1.98384711 9.03230578 0 13 C12.375 12.505 12.375 12.505 25 12 C25.66 10.02 26.32 8.04 27 6 C27.66 6 28.32 6 29 6 C29.33 5.01 29.66 4.02 30 3 C29.67 5.97 29.34 8.94 29 12 C28.34 12 27.68 12 27 12 C27 12.66 27 13.32 27 14 C17.1 14 7.2 14 -3 14 C-2.3226032 8.58082561 -1.83089958 4.88239887 0 0 Z " fill="#E40A1B" transform="translate(16,170)"/>
<path d="M0 0 C0.99 0.33 1.98 0.66 3 1 C2.67 8.59 2.34 16.18 2 24 C10.58 24 19.16 24 28 24 C28 24.33 28 24.66 28 25 C19.09 25 10.18 25 1 25 C-0.125 16 -0.125 16 -0.09765625 12.5 C-0.09443359 11.75878906 -0.09121094 11.01757812 -0.08789062 10.25390625 C-0.07951172 9.51011719 -0.07113281 8.76632813 -0.0625 8 C-0.05798828 7.22527344 -0.05347656 6.45054687 -0.04882812 5.65234375 C-0.03719758 3.76819476 -0.01926906 1.88408635 0 0 Z " fill="#C80C1E" transform="translate(214,158)"/>
<path d="M0 0 C0.66 0 1.32 0 2 0 C3.44724279 4.81208229 3.42582327 9.80017105 3.71875 14.78515625 C3.87584879 18.01478796 3.87584879 18.01478796 5 21 C4.52274325 23.95899183 3.4092283 26.3694405 2 29 C0.63160637 26.26321275 0.78365182 23.95735576 0.68359375 20.8984375 C0.64169922 19.68671875 0.59980469 18.475 0.55664062 17.2265625 C0.51732422 15.95554688 0.47800781 14.68453125 0.4375 13.375 C0.37272461 11.456875 0.37272461 11.456875 0.30664062 9.5 C0.20030114 6.33344652 0.09827167 3.16681247 0 0 Z " fill="#E00C26" transform="translate(213,128)"/>
<path d="M0 0 C0.33 0.99 0.66 1.98 1 3 C-0.94090826 4.94090826 -4.47293902 4.39919435 -7.0625 4.5625 C-8.35285156 4.64628906 -9.64320313 4.73007813 -10.97265625 4.81640625 C-11.97167969 4.87699219 -12.97070312 4.93757812 -14 5 C-14.66 3.68 -15.32 2.36 -16 1 C-8.08 0.505 -8.08 0.505 0 0 Z " fill="#420205" transform="translate(192,184)"/>
<path d="M0 0 C3.73732248 3.73732248 4.6133665 9.48433646 6.1875 14.4375 C6.56841797 15.59572266 6.94933594 16.75394531 7.34179688 17.94726562 C7.87450195 19.61112305 7.87450195 19.61112305 8.41796875 21.30859375 C8.74563232 22.32751709 9.0732959 23.34644043 9.41088867 24.39624023 C10 27 10 27 9 30 C8.67 30 8.34 30 8 30 C7.01 26.37 6.02 22.74 5 19 C4.34 19 3.68 19 3 19 C2.92652344 18.12988281 2.92652344 18.12988281 2.8515625 17.2421875 C2.40082036 12.53270926 1.56494752 8.48618288 0 4 C0 2.68 0 1.36 0 0 Z " fill="#D90C2F" transform="translate(86,93)"/>
<path d="M0 0 C2.05322266 3.73681641 2.05322266 3.73681641 1.57421875 6.10546875 C1.28160156 6.79253906 0.98898438 7.47960937 0.6875 8.1875 C0.26017578 9.22970703 0.26017578 9.22970703 -0.17578125 10.29296875 C-1 12 -1 12 -2 13 C-1.67 13.99 -1.34 14.98 -1 16 C-2.65 17.32 -4.3 18.64 -6 20 C-7 18 -7 18 -6.47094727 16.12060547 C-6.17244873 15.37697754 -5.8739502 14.63334961 -5.56640625 13.8671875 C-5.24736328 13.06152344 -4.92832031 12.25585938 -4.59960938 11.42578125 C-4.25736328 10.58402344 -3.91511719 9.74226563 -3.5625 8.875 C-3.22412109 8.02550781 -2.88574219 7.17601563 -2.53710938 6.30078125 C-1.69823043 4.19767629 -0.85228875 2.09769845 0 0 Z " fill="#DB0E31" transform="translate(199,100)"/>
<path d="M0 0 C7.92 0 15.84 0 24 0 C23.67 0.66 23.34 1.32 23 2 C19.5430244 2.25417629 16.08471174 2.47407622 12.625 2.6875 C11.64015625 2.76033203 10.6553125 2.83316406 9.640625 2.90820312 C8.22910156 2.99038086 8.22910156 2.99038086 6.7890625 3.07421875 C5.91975098 3.13182373 5.05043945 3.18942871 4.15478516 3.2487793 C3.0881665 3.12563354 3.0881665 3.12563354 2 3 C1.34 2.01 0.68 1.02 0 0 Z " fill="#4F0005" transform="translate(128,186)"/>
<path d="M0 0 C10.89 0 21.78 0 33 0 C33.495 2.475 33.495 2.475 34 5 C33.505 3.515 33.505 3.515 33 2 C28.80081815 1.92569506 24.60198726 1.87132587 20.40234375 1.83520508 C18.97454154 1.82014319 17.5467854 1.79968938 16.11914062 1.77368164 C14.06368627 1.73718158 12.00884495 1.72024834 9.953125 1.70703125 C8.71723633 1.6913208 7.48134766 1.67561035 6.20800781 1.65942383 C2.79838589 2.02140424 1.45418505 2.67709778 -1 5 C-0.67 3.35 -0.34 1.7 0 0 Z " fill="#B60009" transform="translate(48,165)"/>
<path d="M0 0 C2.81302234 4.2195335 4.09482865 8.77171903 5.6875 13.5625 C6.02072266 14.53380859 6.35394531 15.50511719 6.69726562 16.50585938 C7.00728516 17.43333984 7.31730469 18.36082031 7.63671875 19.31640625 C7.92248779 20.16662354 8.20825684 21.01684082 8.50268555 21.89282227 C9 24 9 24 8 26 C5.23651068 21.85071398 3.75381425 17.7201953 2.3125 13 C2.08755859 12.30132812 1.86261719 11.60265625 1.63085938 10.8828125 C0.47601928 7.16205109 -0.28194275 3.90147802 0 0 Z " fill="#D40B23" transform="translate(106,152)"/>
<path d="M0 0 C1.23593891 3.70781672 0.5678132 4.67510253 -0.9375 8.1875 C-1.618125 9.775625 -2.29875 11.36375 -3 13 C-8.61 13 -14.22 13 -20 13 C-19.67 11.68 -19.34 10.36 -19 9 C-19 9.99 -19 10.98 -19 12 C-14.38 12 -9.76 12 -5 12 C-4.67 10.35 -4.34 8.7 -4 7 C-3.34 7 -2.68 7 -2 7 C-1.855625 6.030625 -1.71125 5.06125 -1.5625 4.0625 C-1 1 -1 1 0 0 Z " fill="#E60C1E" transform="translate(196,169)"/>
<path d="M0 0 C2.71161391 1.00284894 3.78469211 1.54608598 5.046875 4.20703125 C5.27890625 5.06683594 5.5109375 5.92664063 5.75 6.8125 C6.11351562 8.09060547 6.11351562 8.09060547 6.484375 9.39453125 C7.0004137 12.00209044 7.09516664 14.34960919 7 17 C4.08980689 14.53175599 3.06459804 12.06919902 1.8125 8.5 C1.29623047 7.06140625 1.29623047 7.06140625 0.76953125 5.59375 C0 3 0 3 0 0 Z " fill="#D10817" transform="translate(169,165)"/>
<path d="M0 0 C0.5662207 0.15847412 1.13244141 0.31694824 1.71582031 0.48022461 C4.0345345 1.00785848 6.17358397 1.204156 8.546875 1.31640625 C9.39121094 1.35830078 10.23554687 1.40019531 11.10546875 1.44335938 C12.41451172 1.50233398 12.41451172 1.50233398 13.75 1.5625 C14.63816406 1.60568359 15.52632812 1.64886719 16.44140625 1.69335938 C18.62745963 1.79913615 20.81362089 1.90122546 23 2 C23 2.33 23 2.66 23 3 C15.96094956 3.93854006 9.09727428 4.10808032 2 4 C1.34 2.68 0.68 1.36 0 0 Z " fill="#3D0305" transform="translate(86,186)"/>
<path d="M0 0 C0.89203125 0.00902344 1.7840625 0.01804688 2.703125 0.02734375 C3.37859375 0.03894531 4.0540625 0.05054688 4.75 0.0625 C4.75 0.7225 4.75 1.3825 4.75 2.0625 C5.41 2.3925 6.07 2.7225 6.75 3.0625 C1.47 3.0625 -3.81 3.0625 -9.25 3.0625 C-9.25 2.4025 -9.25 1.7425 -9.25 1.0625 C-6.09493858 0.12630187 -3.28413498 -0.0432123 0 0 Z " fill="#52020A" transform="translate(58.25,168.9375)"/>
<path d="M0 0 C1.32630565 4.14470514 1.98384711 9.03230578 0 13 C1.98 13 3.96 13 6 13 C6 13.33 6 13.66 6 14 C3.03 14 0.06 14 -3 14 C-2.48594831 9.03083364 -1.76615118 4.70973649 0 0 Z " fill="#C90D1E" transform="translate(16,170)"/>
<path d="M0 0 C0.33 0 0.66 0 1 0 C1.24286612 4.12872401 0.3938787 7.12811473 -1 11 C-1.69411022 13.32620721 -2.34542178 15.66222063 -3 18 C-3.33 18 -3.66 18 -4 18 C-3.91239411 15.93673023 -3.80420727 13.8743284 -3.6875 11.8125 C-3.62949219 10.66394531 -3.57148438 9.51539063 -3.51171875 8.33203125 C-2.97593064 4.84327353 -2.07198329 2.82833708 0 0 Z " fill="#E30D22" transform="translate(20,161)"/>
<path d="M0 0 C1.51553092 3.97450493 0.49888623 7.20481149 -0.4375 11.25 C-0.72496094 12.51328125 -1.01242188 13.7765625 -1.30859375 15.078125 C-1.53675781 16.04234375 -1.76492187 17.0065625 -2 18 C-2.66 18 -3.32 18 -4 18 C-3.7607354 16.35932849 -3.52133082 14.71867727 -3.28125 13.078125 C-3.09132988 11.67482632 -2.92521042 10.26813056 -2.78125 8.859375 C-2.40086753 5.19140122 -2.0819568 3.12293519 0 0 Z " fill="#D5061A" transform="translate(60,122)"/>
<path d="M0 0 C1.89453748 2.84180622 3.00192814 5.31564815 4.1875 8.5 C4.55230469 9.4590625 4.91710937 10.418125 5.29296875 11.40625 C6 14 6 14 5 17 C4.01 14.69 3.02 12.38 2 10 C1.34 10 0.68 10 0 10 C0 6.7 0 3.4 0 0 Z " fill="#D60A26" transform="translate(96,122)"/>
<path d="M0 0 C0.66 0.33 1.32 0.66 2 1 C2 2.65 2 4.3 2 6 C-3.94 6 -9.88 6 -16 6 C-16 5.67 -16 5.34 -16 5 C-11.05 5 -6.1 5 -1 5 C-0.67 3.35 -0.34 1.7 0 0 Z " fill="#F00B1F" transform="translate(113,177)"/>
<path d="M0 0 C0.33 0 0.66 0 1 0 C0.40984815 5.50808397 -0.56663769 10.64878069 -2 16 C-2.33 16 -2.66 16 -3 16 C-3.08133791 14.08404032 -3.13934367 12.16708068 -3.1875 10.25 C-3.22230469 9.18265625 -3.25710937 8.1153125 -3.29296875 7.015625 C-2.97032505 3.69454586 -2.28826707 2.37472553 0 0 Z " fill="#F60C2E" transform="translate(57,128)"/>
<path d="M0 0 C2.25597827 2.25597827 2.96574192 4.04603867 4.125 7 C4.47820312 7.886875 4.83140625 8.77375 5.1953125 9.6875 C6 12 6 12 6 14 C5.34 14 4.68 14 4 14 C3.67 13.01 3.34 12.02 3 11 C2.34 10.67 1.68 10.34 1 10 C0.5859375 7.71484375 0.5859375 7.71484375 0.375 4.9375 C0.30023438 4.01839844 0.22546875 3.09929687 0.1484375 2.15234375 C0.09945312 1.44207031 0.05046875 0.73179688 0 0 Z " fill="#D40C30" transform="translate(164,91)"/>
<path d="M0 0 C1.36959468 3.11271517 0.90994332 4.25666155 -0.25 7.5625 C-1.72532525 10.46046031 -2.70555087 11.87956808 -5 14 C-4.54636829 12.41531323 -4.08688548 10.83230076 -3.625 9.25 C-3.36976563 8.36828125 -3.11453125 7.4865625 -2.8515625 6.578125 C-2.0790066 4.23919428 -1.16374324 2.16557438 0 0 Z " fill="#CF0D34" transform="translate(205,86)"/>
<path d="M0 0 C1.50560497 2.85410334 2.63216796 5.68124642 3.625 8.75 C3.88539062 9.54921875 4.14578125 10.3484375 4.4140625 11.171875 C4.60742188 11.77515625 4.80078125 12.3784375 5 13 C4.01 13.495 4.01 13.495 3 14 C0.96006486 9.07015675 -0.40652968 5.42039575 0 0 Z " fill="#A60411" transform="translate(82,170)"/>
<path d="M0 0 C0.33 0 0.66 0 1 0 C0.67 2.97 0.34 5.94 0 9 C-0.66 9 -1.32 9 -2 9 C-2.33 9.66 -2.66 10.32 -3 11 C-2.67 8.36 -2.34 5.72 -2 3 C-1.34 3 -0.68 3 0 3 C0 2.01 0 1.02 0 0 Z " fill="#B80514" transform="translate(45,173)"/>
<path d="M0 0 C0.33 0 0.66 0 1 0 C1.35233161 5.37305699 1.35233161 5.37305699 1 8 C-1 10 -1 10 -3 11 C-1.125 3.375 -1.125 3.375 0 0 Z " fill="#E90C2E" transform="translate(189,125)"/>
<path d="M0 0 C0.33 0 0.66 0 1 0 C1.31563182 5.26053037 0.66590937 8.44573816 -2 13 C-3.18771723 9.57056481 -2.80226223 7.62215325 -1.5625 4.25 C-1.27503906 3.45078125 -0.98757812 2.6515625 -0.69140625 1.828125 C-0.46324219 1.22484375 -0.23507813 0.6215625 0 0 Z " fill="#C30C26" transform="translate(34,114)"/>
<path d="M0 0 C0.33 0.99 0.66 1.98 1 3 C-0.65 4.32 -2.3 5.64 -4 7 C-4.33 6.34 -4.66 5.68 -5 5 C-4 2 -4 2 -1.9375 0.8125 C-1.298125 0.544375 -0.65875 0.27625 0 0 Z " fill="#EB0F3B" transform="translate(197,113)"/>
<path d="M0 0 C2.95183101 2.95183101 3.08663988 5.95511947 4 10 C3.01 9.67 2.02 9.34 1 9 C0.67 6.03 0.34 3.06 0 0 Z " fill="#D50A25" transform="translate(102,140)"/>
<path d="M0 0 C0.33 0 0.66 0 1 0 C1 2.64 1 5.28 1 8 C0.34 8 -0.32 8 -1 8 C-1.33 8.99 -1.66 9.98 -2 11 C-3 9 -3 9 -2.44140625 6.8359375 C-2.15136719 6.02382812 -1.86132812 5.21171875 -1.5625 4.375 C-1.27503906 3.55773437 -0.98757812 2.74046875 -0.69140625 1.8984375 C-0.46324219 1.27195312 -0.23507813 0.64546875 0 0 Z " fill="#D51035" transform="translate(40,96)"/>
<path d="M0 0 C1.04973814 4.19895255 0.72795155 6.79405774 0 11 C-0.99 11 -1.98 11 -3 11 C-2.01 7.37 -1.02 3.74 0 0 Z " fill="#D21037" transform="translate(44,84)"/>
<path d="M0 0 C0.33 0.66 0.66 1.32 1 2 C-1.45454545 7.72727273 -1.45454545 7.72727273 -4 9 C-2.25 2.25 -2.25 2.25 0 0 Z " fill="#F70A2C" transform="translate(212,129)"/>
</svg>
